<svg width="286" height="52" viewBox="0 0 286 52" fill="none" xmlns="http://www.w3.org/2000/svg">
<path d="M11.4 6.50003C7.6 9.10003 6.9 12.7 7.2 29.5C7.5 44.7 7.6 45.5 9.5 45.5C11.4 45.5 11.5 44.7 11.8 34.3L12.1 23.1L15.8 22.8C18.7 22.6 19.5 22.1 19.5 20.5C19.5 18.9 18.7 18.4 15.8 18.2C13 18 12 17.4 12 16.2C12 13.5 14.8 10.2 17.3 9.80003C18.7 9.60003 19.6 8.70003 19.8 7.20003C20.1 5.30003 19.7 5.00003 16.8 5.00003C15 5.00003 12.5 5.70003 11.4 6.50003Z" fill="#0EA5E9"></path>
<path d="M98 25.5V46.1L100.3 45.8C102.2 45.5 102.5 44.8 102.8 40.5C103.3 33.3 104.7 32.1 107.9 36.2C113.5 43.4 117.2 46.9 118.6 46.3C120.1 45.7 120.5 42.4 119.1 41.6C118.7 41.3 116.4 38.5 114 35.5L109.7 29.9L115 24.5C119.9 19.6 120.8 17 117.6 17C116.8 17 113.4 19.6 109.9 22.7L103.5 28.4L103 16.9C102.5 6.00002 102.4 5.50002 100.3 5.20002L98 4.90002V25.5Z" fill="#0EA5E9"></path>
<path d="M131.7 7.40001C130.6 10.2 132.1 12.1 134.9 11.8C136.9 11.6 137.5 11 137.5 9.00001C137.5 7.00001 136.9 6.40001 134.9 6.20001C133.2 6.00001 132 6.50001 131.7 7.40001Z" fill="#0EA5E9"></path>
<path d="M80.4 16.9C75.8 18 72.3 21 70 25.7C68.3 29 68 31.3 68.2 37.7C68.5 44.7 68.7 45.5 70.5 45.5C72.3 45.5 72.6 44.6 73.1 37.2C73.8 27.4 75.7 24.2 81.6 22.2C86.6 20.5 87.6 19.5 86 17.5C85.3 16.7 84.5 16 84.1 16.1C83.8 16.2 82.1 16.5 80.4 16.9Z" fill="#0EA5E9"></path>
<path d="M35.1 18.8C25.7 23.5 24.3 35.4 32.4 42.9C35.9 46.2 44 47 48.7 44.5C56.7 40.1 58.7 28.9 52.6 22.2C47.8 16.9 41.2 15.6 35.1 18.8ZM48.1 24.9C51.9 28.8 52 33.6 48.4 37.9C41.7 45.9 29 37.7 33 27.9C35.6 21.7 43.3 20.2 48.1 24.9Z" fill="#0EA5E9"></path>
<path d="M132.4 18.3C132.2 19 132.1 25.4 132.2 32.5C132.5 44.3 132.7 45.5 134.4 45.8C135.4 46 136.6 45.6 137.1 44.8C138.3 42.9 138.2 21.3 137 18.9C135.8 16.7 133.2 16.4 132.4 18.3Z" fill="#0EA5E9"></path>
<path d="M157.1 18.8C148.1 23.7 147.6 38.7 156.2 44C160.9 46.9 169 46.8 172.4 43.7C174.2 42.2 174.7 41.1 174.1 40.1C173.3 38.9 172.6 39 169 40.4C165.6 41.8 164.1 41.9 161.4 41C155 38.9 153 30.5 157.6 25.1C160.6 21.5 165.4 20.9 170.1 23.7C172.4 25.1 173.2 25.2 174.2 24.2C175.2 23.2 174.9 22.4 172.8 20.3C169.3 16.8 161.9 16.1 157.1 18.8Z" fill="#0EA5E9"></path>
<path d="M192.9 19C185.5 22.9 183 34 188.2 40.5C192.4 45.8 200.9 47.6 207 44.5C209.7 43.1 210 43.1 210 44.5C210 45.6 210.7 46 212.3 45.8C214.3 45.5 214.5 44.9 214.8 37.7C215 31.3 214.7 29 212.9 25.4C209.2 17.7 200.5 15 192.9 19ZM205.8 24.5C209.4 27.5 210.3 31.4 208.5 35.7C206.9 39.5 204.4 41 199.5 41C194.2 41 191 37.4 191 31.6C191 27.9 191.5 26.8 194.1 24.6C198 21.3 202 21.3 205.8 24.5Z" fill="#0EA5E9"></path>
<path d="M221.3 18.6C221 19.4 223.4 25.7 226.7 32.8C231.3 42.5 233.1 45.5 234.6 45.5C236 45.5 238 42.4 242.8 32.6C248.4 20.9 248.9 19.5 247.5 18.1C245.4 16 244.1 17.5 239.5 28C237.4 32.7 235.5 36.8 235.1 37.2C234.7 37.6 232.5 33.6 230 28.2C227.6 22.9 225.1 18.2 224.5 17.8C222.9 16.6 222 16.9 221.3 18.6Z" fill="#0EA5E9"></path>
<path d="M262 19.2C256.8 22.8 254.8 26.1 254.8 31.3C254.8 39.9 260.8 46 269.2 46C274.7 46 278.4 44.1 278.8 41.1C279.1 39 278.9 38.8 276.3 39.4C268.2 41.5 265.9 41.3 262.9 38.4C258.8 34.5 258.8 29 262.9 24.9C266.2 21.7 269.6 21.2 273.9 23.5C276.3 24.7 278 26.8 278 28.5C278 28.7 275.6 29 272.8 29.2C268.3 29.5 267.5 29.8 267.5 31.5C267.5 33.3 268.2 33.5 275.5 33.5H283.5L283.4 29.7C283.1 19.7 270.4 13.6 262 19.2Z" fill="#0EA5E9"></path>
</svg>
