<svg width="286" height="52" fill="none" xmlns="http://www.w3.org/2000/svg"><path d="M11.4 6.5c-3.8 2.6-4.5 6.2-4.2 23 .3 15.2.4 16 2.3 16s2-.8 2.3-11.2l.3-11.2 3.7-.3c2.9-.2 3.7-.7 3.7-2.3 0-1.6-.8-2.1-3.7-2.3-2.8-.2-3.8-.8-3.8-2 0-2.7 2.8-6 5.3-6.4 1.4-.2 2.3-1.1 2.5-2.6.3-1.9-.1-2.2-3-2.2-1.8 0-4.3.7-5.4 1.5ZM98 25.5v20.6l2.3-.3c1.9-.3 2.2-1 2.5-5.3.5-7.2 1.9-8.4 5.1-4.3 5.6 7.2 9.3 10.7 10.7 10.1 1.5-.6 1.9-3.9.5-4.7-.4-.3-2.7-3.1-5.1-6.1l-4.3-5.6 5.3-5.4c4.9-4.9 5.8-7.5 2.6-7.5-.8 0-4.2 2.6-7.7 5.7l-6.4 5.7-.5-11.5c-.5-10.9-.6-11.4-2.7-11.7L98 4.9v20.6ZM131.7 7.4c-1.1 2.8.4 4.7 3.2 4.4 2-.2 2.6-.8 2.6-2.8 0-2-.6-2.6-2.6-2.8-1.7-.2-2.9.3-3.2 1.2ZM80.4 16.9C75.8 18 72.3 21 70 25.7c-1.7 3.3-2 5.6-1.8 12 .3 7 .5 7.8 2.3 7.8 1.8 0 2.1-.9 2.6-8.3.7-9.8 2.6-13 8.5-15 5-1.7 6-2.7 4.4-4.7-.7-.8-1.5-1.5-1.9-1.4-.3.1-2 .4-3.7.8ZM35.1 18.8c-9.4 4.7-10.8 16.6-2.7 24.1 3.5 3.3 11.6 4.1 16.3 1.6 8-4.4 10-15.6 3.9-22.3-4.8-5.3-11.4-6.6-17.5-3.4Zm13 6.1c3.8 3.9 3.9 8.7.3 13-6.7 8-19.4-.2-15.4-10 2.6-6.2 10.3-7.7 15.1-3ZM132.4 18.3c-.2.7-.3 7.1-.2 14.2.3 11.8.5 13 2.2 13.3 1 .2 2.2-.2 2.7-1 1.2-1.9 1.1-23.5-.1-25.9-1.2-2.2-3.8-2.5-4.6-.6ZM157.1 18.8c-9 4.9-9.5 19.9-.9 25.2 4.7 2.9 12.8 2.8 16.2-.3 1.8-1.5 2.3-2.6 1.7-3.6-.8-1.2-1.5-1.1-5.1.3-3.4 1.4-4.9 1.5-7.6.6-6.4-2.1-8.4-10.5-3.8-15.9 3-3.6 7.8-4.2 12.5-1.4 2.3 1.4 3.1 1.5 4.1.5 1-1 .7-1.8-1.4-3.9-3.5-3.5-10.9-4.2-15.7-1.5ZM192.9 19c-7.4 3.9-9.9 15-4.7 21.5 4.2 5.3 12.7 7.1 18.8 4 2.7-1.4 3-1.4 3 0 0 1.1.7 1.5 2.3 1.3 2-.3 2.2-.9 2.5-8.1.2-6.4-.1-8.7-1.9-12.3-3.7-7.7-12.4-10.4-20-6.4Zm12.9 5.5c3.6 3 4.5 6.9 2.7 11.2-1.6 3.8-4.1 5.3-9 5.3-5.3 0-8.5-3.6-8.5-9.4 0-3.7.5-4.8 3.1-7 3.9-3.3 7.9-3.3 11.7-.1ZM221.3 18.6c-.3.8 2.1 7.1 5.4 14.2 4.6 9.7 6.4 12.7 7.9 12.7 1.4 0 3.4-3.1 8.2-12.9 5.6-11.7 6.1-13.1 4.7-14.5-2.1-2.1-3.4-.6-8 9.9-2.1 4.7-4 8.8-4.4 9.2-.4.4-2.6-3.6-5.1-9-2.4-5.3-4.9-10-5.5-10.4-1.6-1.2-2.5-.9-3.2.8ZM262 19.2c-5.2 3.6-7.2 6.9-7.2 12.1 0 8.6 6 14.7 14.4 14.7 5.5 0 9.2-1.9 9.6-4.9.3-2.1.1-2.3-2.5-1.7-8.1 2.1-10.4 1.9-13.4-1-4.1-3.9-4.1-9.4 0-13.5 3.3-3.2 6.7-3.7 11-1.4 2.4 1.2 4.1 3.3 4.1 5 0 .2-2.4.5-5.2.7-4.5.3-5.3.6-5.3 2.3 0 1.8.7 2 8 2h8l-.1-3.8c-.3-10-13-16.1-21.4-10.5Z" fill="#0EA5E9"/></svg>